<svg width="670.000000" height="360.000000" viewBox="0 0 670 360" fill="none" xmlns="http://www.w3.org/2000/svg" xmlns:xlink="http://www.w3.org/1999/xlink">
	<desc>
			Created with Pixso.
	</desc>
	<defs/>
	<rect id="Rectangle 1124" rx="20.000000" width="670.000000" height="360.000000" fill="#F8BC5C" fill-opacity="1.000000"/>
	<path id="SERM" d="M271.06 288.52L264.22 288.52C263.85 285.18 261.05 283.21 256.81 283.21C252.36 283.21 249.71 285.37 249.7 288.32C249.66 291.6 253.14 292.96 256.37 293.74L260.05 294.65C265.96 296.06 271.57 299.16 271.6 305.97C271.57 312.9 266.11 317.59 256.7 317.59C247.55 317.59 241.74 313.2 241.45 305.39L248.45 305.39C248.74 309.52 252.19 311.51 256.64 311.51C261.28 311.51 264.47 309.27 264.48 305.91C264.47 302.86 261.66 301.54 257.43 300.46L252.96 299.32C246.5 297.64 242.49 294.41 242.49 288.77C242.46 281.82 248.66 277.18 256.91 277.18C265.27 277.18 270.93 281.89 271.06 288.52ZM304.7 317L279.01 317L279.01 277.72L304.54 277.72L304.54 283.68L286.11 283.68L286.11 294.35L303.22 294.35L303.22 300.32L286.11 300.32L286.11 311.04L304.7 311.04L304.7 317ZM320 317L312.9 317L312.9 277.72L327.62 277.72C336.64 277.72 341.46 282.78 341.46 290.29C341.46 295.61 339.03 299.57 334.41 301.43L342.9 317L334.97 317L327.25 302.61L320 302.61L320 317ZM349.11 317L349.11 277.72L357.81 277.72L369.48 306.18L369.92 306.18L381.59 277.72L390.29 277.72L390.29 317L383.46 317L383.46 290.01L383.11 290.01L372.24 316.88L367.15 316.88L356.29 289.96L355.94 289.96L355.94 317L349.11 317ZM320 283.67L320 296.71L326.57 296.71C331.84 296.71 334.21 294.46 334.21 290.29C334.21 286.11 331.84 283.67 326.53 283.67L320 283.67Z" fill="#202020" fill-opacity="1.000000" fill-rule="evenodd"/>
</svg>
